<?xml version="1.0" encoding="utf-8"?>
<!-- Generator: Adobe Illustrator 21.0.0, SVG Export Plug-In . SVG Version: 6.00 Build 0)  -->
<svg version="1.1" id="Слой_1" xmlns="http://www.w3.org/2000/svg" xmlns:xlink="http://www.w3.org/1999/xlink" x="0px" y="0px"
	 viewBox="0 0 306.3 372.5" style="enable-background:new 0 0 306.3 372.5;" xml:space="preserve">
<style type="text/css">
	.st0{fill:#514E49;}
	.st1{fill:#FFFFFF;}
</style>
<path class="st0" d="M81.5,114.2c0,0-7.3-7.4-15.2-9.8s-13.4-0.2-17.8,1.3c-4.4,1.5-10,2.4-10.2,4.2c-0.2,1.7,0.6,3.1,3.5,3.4
	s5.8-1.7,10-2.9c4.3-1.3,8.8-2.2,13.4-2C69.8,108.4,81.5,114.2,81.5,114.2z"/>
<path class="st0" d="M45.9,123.8c0.1-0.3,0.5-0.2,0.4,0.1c-0.2,2-1,6.2,0.4,7.9c2.2,2.5,7.1,1.9,10.3,1c3.1-0.8,11-5.1,12.5-6.1
	c1.9-1.4,3.3-0.3,2.8,2c-1.7,7.1-9.7,13.5-9.7,13.5l0.2-1.8c0.1-0.7,0.1-1.4,0-2.1l-0.2-2c0,0-2.3,3.9-4.1,5.5
	c-1.6,1.6-5.7,3.9-5.7,3.9c0-0.1,0.7-2,1-2.9c0.5-1.8,0.4-3.6,0.4-3.6s-1.7,2.9-4.1,5.4c-2.8,2.9-5.7,3.4-5.7,3.4s1.9-2.2,2.7-3.7
	c0.8-1.5,0.9-3.6,0.9-3.6s-3,3.4-5.8,4.6c-3.3,1.5-7.1,1-7.1,1s3.6-1.7,5.5-3.7c1.5-1.5,2.4-3.5,2.4-3.5s-2.6,1.3-5.4,1.6
	c-2.9,0.3-5-0.4-5-0.4s1.8-0.4,4.2-1.3c5.7-2.1,6.3-4.3,6.8-7.7C43.7,128.9,45.3,125.8,45.9,123.8z"/>
<path class="st0" d="M17.7,162.9c0,0,3.9,0.9,5.8,1.4c2,0.5,4.6,1.4,4.8,3c0.2,1.6-0.2,1.9-1.8,2.1s-2.1-1.9-3.7-2.7
	C21.3,165.9,17.7,162.9,17.7,162.9z"/>
<path class="st0" d="M33.9,198.3c0,0-3.2,1.3-4.6,0.9s-2.5-3.1-0.8-4.8c1.7-1.7,9.6-0.2,11.5-0.6c3-0.7,4.4-2.3,3.2-3.5
	c-2.8-2.9-4.5-0.6-11-4.8c-5.5-3.6-9.8-7.9-12.4-5.4c-1.8,1.7-0.3,6.3,3.7,8.8c1.3,0.8,4.1,2,4.1,2s-3.4-0.1-5.3,0.8s-2.7,3-1.8,6.2
	c0.9,3.1,3.5,5.1,9.5,3.4C32.2,200.8,33.9,198.3,33.9,198.3z"/>
<path class="st0" d="M115.5,30.3c0,0-18.4-4.3-38.8,1.3C56.3,37.3,47.9,50,44.6,58.1c-3.6,8.7,2,19.6,2,19.6S36.1,87.6,32.3,99
	c-6,18.2-3.6,37.3-3.6,37.3s-5.5-24.4-2.1-35.9s9-18.2,9-18.2S25,86.1,22.2,100.1c-1.3,6.6,4.3,39.1,4.3,39.1s-6.4-21.3-8.3-31.2
	c-2.2-10.8,0-21,7.8-27.8c7.7-6.8,15.4-6.8,15.4-6.8s-3-10.8-1.3-16.3c2.9-9.9,9.9-19.2,9.9-19.2S41.7,42.8,38,53.3
	c-3.8,10.9-0.8,17.8-0.8,17.8c0.1,0-7-6.1-3.9-20C37.2,33,58.5,27.4,71,18.9C75.1,16.1,87.3,5,87.3,5S82.7,13.5,76,19.8
	c-6.3,5.9-10.4,8.6-10.4,8.6s12.3-3.1,21.7-3.5C100.6,24.3,115.5,30.3,115.5,30.3z"/>
<path class="st0" d="M123.7,42.1c0,0-23.3-2.4-41.4,3.3c-23.3,7.4-27,17.4-27,17.4s10.2-8.3,32.4-13.7c19.2-4.6,41.8-5.7,60.3,3.8
	c27.2,13.9,22.9,30.6,34.3,78.5c11.4,47.7,30.6,65.5,50.8,80.8c44.3,33.5,40.6,76.8,40.6,76.8s-3.8-27.4-28-46.7
	c-24.6-19.5-36-22.3-56.4-44.3c-30-32.4-28.7-98-28.7-98s-6,68.1,14.7,95.4c36.7,48.4,46.9,36.8,67,64.2c13,17.7,4,46.1,16.3,66.4
	c13.2,21.7,47.7,7.9,47.7,7.9s-35,29.8-72.4-3.5c-18.8-16.7-10-53.7-10-53.7s-46.3-19.4-61.1-30c-29.1-20.8-28.4-83.1-28.4-83.1
	s-10.3,55,19.8,86.8c24.4,25.8,56.7,33.1,56.7,33.1s-7.6,25.8,12,53c16.3,22.7,52.8,31,52.8,31s-79.1,4.1-135.2-40.1
	c-57.5-45.3-46.6-113-46.6-113s-2.8,2-7.2,2.4c-6,0.6-12.6-0.7-21.2,0.4c-11,1.3-28,1.3-28,1.3s26.5-3.8,34.9-5.3
	c16.2-2.9,23.6-2.7,29.4-31.6c6.1-30.8,6.1-66.8,5.3-65.7c0,0-1.8,9.6-2.6,12.6c-0.8,3.1-3.4,11.5-3.4,11.5s-1.7-15.2-2-18.9
	c-0.3-3.7-3.8-22.5-3.8-22.5s1.4,26.9,1.4,30.7c0,3.8-2.8,24.1-2.8,24.1s0-39.5-18.6-56.9C60,82.3,52.8,86,47.1,68.3
	c-3-9.2,10-23.1,24.7-29C98.6,28.4,123.7,42.1,123.7,42.1z"/>
<path class="st1" d="M200.6,342.3c0,0-14.1-23.6-29.2-36c-15-12.4-29.4-21.9-45.6-44c-16.7-23-12.7-70.6-12.7-70.6s-8.5,32-2.8,59.3
	c5.3,25.5,32.4,46.9,52.7,59.2C180.7,320.9,200.6,342.3,200.6,342.3z"/>
<path class="st1" d="M206.5,328.4c0,0-2.8-32-36.1-51.1c-17.8-10.2-31.4-26.9-31.4-26.9s13.4,28.9,38.8,44.2
	C197.4,306.5,206.5,328.4,206.5,328.4z"/>
<path class="st1" d="M62.3,64.8c0,0,41.1-15.3,56.2,7.5c22.9,34.6-0.5,98-0.5,98s3.9-21.8,4.6-32.5c1-15.6,0-24.3,0-24.3l-4.8,11.5
	c0,0,3.4-32.2-10.5-48.8C92.6,58.6,62.3,64.8,62.3,64.8z"/>
<path class="st1" d="M103.9,53.6c0,0,32.4,4.3,43.2,21.7c21.1,34.2-6.2,77.9-6.2,77.9s3.9-11.8,5.5-22c2.4-15.5,1.6-21.5,1.6-21.5
	l-4,10.9c-0.6,1.7-1.4,3.3-2.3,4.8l-7.6,12.7c0,0,15.3-33.9,2.6-59.8C127.4,59.2,103.9,53.6,103.9,53.6z"/>
<path class="st0" d="M76.2,221.7l-9.4-0.3c0,0-8.5,12.6-7.2,23.3c1.7,13.9,13.7,22.3,13.7,22.3s-7.9,17.3-4.3,34.6
	c11.4,54.8,89,41.4,89,41.4s-49.9-1.9-62.8-29.2c-12.5-26.4-4.1-44.8-4.1-44.8s-20.4-8.1-23-26.8C66.5,230.8,76.2,221.7,76.2,221.7z
	"/>
<path class="st0" d="M93.7,274.9c0,0,0.4,25.7,9,38.9c10.2,15.6,36.4,19.4,36.4,19.4S118.9,322,109.9,309
	C100,294.6,93.7,274.9,93.7,274.9z"/>
<path class="st0" d="M117.6,34.1c0,0,33.7-14.2,63.6,1.8c43.9,23.4,52.5,79.6,65.3,120c21.1,66.8,54.1,89,54.1,89
	s-51.3-21.5-68.6-62c-14.6-34.4-21.2-86.4-36.2-110.5c-18.9-30.1-39.2-34.6-39.2-34.6s40.2,17.5,43.1,57.8c2.3,31.7,22.6,93,22.6,93
	s-26.1-33.9-32.7-74.2C175.6,30.4,117.6,34.1,117.6,34.1z"/>
</svg>
